<mxfile host="app.diagrams.net" modified="2023-05-26T06:27:48.611Z" agent="Mozilla/5.0 (Macintosh; Intel Mac OS X 10_15_7) AppleWebKit/537.36 (KHTML, like Gecko) Chrome/113.0.0.0 Safari/537.36" etag="pKoCAn-8aWtnZh6lL1L3" version="21.3.2" type="device">
  <diagram name="Page-1" id="k_5CoacCwc1lMXGJXXsY">
    <mxGraphModel dx="1272" dy="717" grid="1" gridSize="10" guides="1" tooltips="1" connect="1" arrows="1" fold="1" page="1" pageScale="1" pageWidth="850" pageHeight="1100" math="0" shadow="0">
      <root>
        <mxCell id="0" />
        <mxCell id="1" parent="0" />
        <mxCell id="yQR6baKr6K5H0-pfH2Kk-1" value="&lt;font color=&quot;#ffffff&quot; style=&quot;font-size: 14px;&quot;&gt;&lt;b&gt;Input 1&lt;/b&gt;&lt;/font&gt;" style="rounded=1;whiteSpace=wrap;html=1;fillColor=#6fa9c1;strokeWidth=2;" parent="1" vertex="1">
          <mxGeometry x="40" y="200.00000000000003" width="80" height="40" as="geometry" />
        </mxCell>
        <mxCell id="yQR6baKr6K5H0-pfH2Kk-2" value="&lt;font color=&quot;#ffffff&quot; style=&quot;font-size: 14px;&quot;&gt;&lt;b&gt;Input 2&lt;/b&gt;&lt;/font&gt;" style="rounded=1;whiteSpace=wrap;html=1;fillColor=#6fa9c1;strokeWidth=2;" parent="1" vertex="1">
          <mxGeometry x="40" y="250.00000000000003" width="80" height="40" as="geometry" />
        </mxCell>
        <mxCell id="yQR6baKr6K5H0-pfH2Kk-12" style="edgeStyle=orthogonalEdgeStyle;rounded=0;orthogonalLoop=1;jettySize=auto;html=1;endArrow=none;endFill=0;entryX=1.002;entryY=0.41;entryDx=0;entryDy=0;entryPerimeter=0;exitX=1.035;exitY=0.457;exitDx=0;exitDy=0;exitPerimeter=0;" parent="1" source="yQR6baKr6K5H0-pfH2Kk-3" edge="1" target="yQR6baKr6K5H0-pfH2Kk-1">
          <mxGeometry relative="1" as="geometry">
            <mxPoint x="180" y="218.08" as="targetPoint" />
            <Array as="points">
              <mxPoint x="80" y="318.08" />
              <mxPoint x="160" y="318.08" />
              <mxPoint x="160" y="216.08" />
            </Array>
          </mxGeometry>
        </mxCell>
        <mxCell id="yQR6baKr6K5H0-pfH2Kk-3" value="&lt;font color=&quot;#ffffff&quot; style=&quot;font-size: 14px;&quot;&gt;&lt;b&gt;Input N&lt;/b&gt;&lt;/font&gt;" style="rounded=1;whiteSpace=wrap;html=1;fillColor=#6fa9c1;strokeWidth=2;" parent="1" vertex="1">
          <mxGeometry x="40" y="300" width="80" height="40" as="geometry" />
        </mxCell>
        <mxCell id="yQR6baKr6K5H0-pfH2Kk-4" value="" style="rounded=0;whiteSpace=wrap;html=1;fillColor=none;dashed=1;" parent="1" vertex="1">
          <mxGeometry x="20" y="180.00000000000003" width="120" height="180" as="geometry" />
        </mxCell>
        <mxCell id="yQR6baKr6K5H0-pfH2Kk-23" style="edgeStyle=orthogonalEdgeStyle;rounded=0;orthogonalLoop=1;jettySize=auto;html=1;entryX=0;entryY=0.5;entryDx=0;entryDy=0;exitX=1;exitY=0.5;exitDx=0;exitDy=0;" parent="1" source="yQR6baKr6K5H0-pfH2Kk-5" target="yQR6baKr6K5H0-pfH2Kk-22" edge="1">
          <mxGeometry relative="1" as="geometry">
            <mxPoint x="540" y="330" as="sourcePoint" />
          </mxGeometry>
        </mxCell>
        <mxCell id="yQR6baKr6K5H0-pfH2Kk-5" value="&lt;br&gt;&lt;br&gt;&lt;br&gt;&lt;b&gt;Security Bot&lt;/b&gt;&lt;br&gt;&lt;b&gt;service&lt;/b&gt;&lt;br&gt;&lt;font style=&quot;font-size: 11px;&quot;&gt;(input entities)&lt;/font&gt;" style="rounded=1;whiteSpace=wrap;html=1;fillColor=#d5e8d4;strokeColor=#82b366;" parent="1" vertex="1">
          <mxGeometry x="380" y="280" width="140" height="101.92" as="geometry" />
        </mxCell>
        <mxCell id="yQR6baKr6K5H0-pfH2Kk-7" value="&lt;font style=&quot;font-size: 11px;&quot;&gt;API&lt;/font&gt;" style="rounded=0;whiteSpace=wrap;html=1;fillColor=#fff2cc;align=center;strokeColor=#d6b656;" parent="1" vertex="1">
          <mxGeometry x="360" y="300" width="20" height="60" as="geometry" />
        </mxCell>
        <mxCell id="yQR6baKr6K5H0-pfH2Kk-13" value="config.&lt;br&gt;yml" style="ellipse;whiteSpace=wrap;html=1;aspect=fixed;" parent="1" vertex="1">
          <mxGeometry x="470" y="291.92" width="40" height="40" as="geometry" />
        </mxCell>
        <mxCell id="yQR6baKr6K5H0-pfH2Kk-14" value="" style="endArrow=classic;html=1;rounded=0;exitX=0.922;exitY=0.771;exitDx=0;exitDy=0;exitPerimeter=0;" parent="1" source="yQR6baKr6K5H0-pfH2Kk-13" edge="1">
          <mxGeometry width="50" height="50" relative="1" as="geometry">
            <mxPoint x="490" y="331.92" as="sourcePoint" />
            <mxPoint x="510" y="311.92" as="targetPoint" />
          </mxGeometry>
        </mxCell>
        <mxCell id="yQR6baKr6K5H0-pfH2Kk-15" value="PostgreSQL" style="shape=cylinder3;whiteSpace=wrap;html=1;boundedLbl=1;backgroundOutline=1;size=15;fillColor=#dae8fc;strokeColor=#6c8ebf;" parent="1" vertex="1">
          <mxGeometry x="380" y="40" width="150" height="80" as="geometry" />
        </mxCell>
        <mxCell id="yQR6baKr6K5H0-pfH2Kk-22" value="&lt;font style=&quot;font-size: 11px;&quot;&gt;task&lt;/font&gt;" style="rounded=1;whiteSpace=wrap;html=1;" parent="1" vertex="1">
          <mxGeometry x="600" y="320" width="40" height="20" as="geometry" />
        </mxCell>
        <mxCell id="yQR6baKr6K5H0-pfH2Kk-49" style="edgeStyle=orthogonalEdgeStyle;rounded=0;orthogonalLoop=1;jettySize=auto;html=1;exitX=1;exitY=0.5;exitDx=0;exitDy=0;endArrow=none;endFill=0;" parent="1" source="yQR6baKr6K5H0-pfH2Kk-24" edge="1">
          <mxGeometry relative="1" as="geometry">
            <mxPoint x="780" y="310" as="targetPoint" />
          </mxGeometry>
        </mxCell>
        <mxCell id="yQR6baKr6K5H0-pfH2Kk-24" value="&lt;font style=&quot;font-size: 11px;&quot;&gt;task&lt;/font&gt;" style="rounded=1;whiteSpace=wrap;html=1;" parent="1" vertex="1">
          <mxGeometry x="660" y="300" width="40" height="20" as="geometry" />
        </mxCell>
        <mxCell id="yQR6baKr6K5H0-pfH2Kk-25" value="" style="shape=dataStorage;whiteSpace=wrap;html=1;fixedSize=1;rotation=-180;dashed=1;fillColor=none;align=left;" parent="1" vertex="1">
          <mxGeometry x="570" y="290" width="150" height="60" as="geometry" />
        </mxCell>
        <mxCell id="yQR6baKr6K5H0-pfH2Kk-27" value="" style="shape=cylinder3;whiteSpace=wrap;html=1;boundedLbl=1;backgroundOutline=1;size=15;rotation=90;fillColor=#dae8fc;strokeColor=#6c8ebf;" parent="1" vertex="1">
          <mxGeometry x="620" y="345" width="80" height="150" as="geometry" />
        </mxCell>
        <mxCell id="yQR6baKr6K5H0-pfH2Kk-31" style="edgeStyle=orthogonalEdgeStyle;rounded=0;orthogonalLoop=1;jettySize=auto;html=1;exitX=0.5;exitY=0;exitDx=0;exitDy=0;entryX=0.667;entryY=0.167;entryDx=0;entryDy=0;entryPerimeter=0;endArrow=none;endFill=0;" parent="1" source="yQR6baKr6K5H0-pfH2Kk-28" target="yQR6baKr6K5H0-pfH2Kk-25" edge="1">
          <mxGeometry relative="1" as="geometry" />
        </mxCell>
        <mxCell id="yQR6baKr6K5H0-pfH2Kk-32" style="edgeStyle=orthogonalEdgeStyle;rounded=0;orthogonalLoop=1;jettySize=auto;html=1;exitX=0.5;exitY=1;exitDx=0;exitDy=0;entryX=0.5;entryY=0;entryDx=0;entryDy=0;endArrow=none;endFill=0;" parent="1" source="yQR6baKr6K5H0-pfH2Kk-28" target="yQR6baKr6K5H0-pfH2Kk-29" edge="1">
          <mxGeometry relative="1" as="geometry" />
        </mxCell>
        <mxCell id="yQR6baKr6K5H0-pfH2Kk-28" value="&lt;font style=&quot;font-size: 11px;&quot;&gt;task&lt;/font&gt;" style="rounded=1;whiteSpace=wrap;html=1;" parent="1" vertex="1">
          <mxGeometry x="600" y="390" width="40" height="20" as="geometry" />
        </mxCell>
        <mxCell id="yQR6baKr6K5H0-pfH2Kk-33" style="edgeStyle=orthogonalEdgeStyle;rounded=0;orthogonalLoop=1;jettySize=auto;html=1;exitX=1;exitY=0.5;exitDx=0;exitDy=0;entryX=0.5;entryY=1;entryDx=0;entryDy=0;endArrow=none;endFill=0;" parent="1" source="yQR6baKr6K5H0-pfH2Kk-29" target="yQR6baKr6K5H0-pfH2Kk-30" edge="1">
          <mxGeometry relative="1" as="geometry" />
        </mxCell>
        <mxCell id="yQR6baKr6K5H0-pfH2Kk-29" value="&lt;font style=&quot;font-size: 11px;&quot;&gt;task&lt;/font&gt;" style="rounded=1;whiteSpace=wrap;html=1;" parent="1" vertex="1">
          <mxGeometry x="600" y="430" width="40" height="20" as="geometry" />
        </mxCell>
        <mxCell id="yQR6baKr6K5H0-pfH2Kk-34" style="edgeStyle=orthogonalEdgeStyle;rounded=0;orthogonalLoop=1;jettySize=auto;html=1;exitX=0.5;exitY=0;exitDx=0;exitDy=0;entryX=0.267;entryY=0.5;entryDx=0;entryDy=0;entryPerimeter=0;endArrow=none;endFill=0;" parent="1" source="yQR6baKr6K5H0-pfH2Kk-30" target="yQR6baKr6K5H0-pfH2Kk-25" edge="1">
          <mxGeometry relative="1" as="geometry" />
        </mxCell>
        <mxCell id="yQR6baKr6K5H0-pfH2Kk-30" value="&lt;font style=&quot;font-size: 11px;&quot;&gt;task&lt;/font&gt;" style="rounded=1;whiteSpace=wrap;html=1;" parent="1" vertex="1">
          <mxGeometry x="660" y="400" width="40" height="20" as="geometry" />
        </mxCell>
        <mxCell id="yQR6baKr6K5H0-pfH2Kk-35" value="Celery" style="text;html=1;strokeColor=none;fillColor=none;align=center;verticalAlign=middle;whiteSpace=wrap;rounded=0;" parent="1" vertex="1">
          <mxGeometry x="610" y="260" width="70" height="30" as="geometry" />
        </mxCell>
        <mxCell id="yQR6baKr6K5H0-pfH2Kk-36" value="Redis" style="text;html=1;strokeColor=none;fillColor=none;align=center;verticalAlign=middle;whiteSpace=wrap;rounded=0;" parent="1" vertex="1">
          <mxGeometry x="625" y="460" width="70" height="30" as="geometry" />
        </mxCell>
        <mxCell id="yQR6baKr6K5H0-pfH2Kk-39" value="&lt;font color=&quot;#ffffff&quot; style=&quot;font-size: 14px;&quot;&gt;&lt;b&gt;Scan 1&lt;/b&gt;&lt;/font&gt;" style="rounded=1;whiteSpace=wrap;html=1;fillColor=#993399;strokeWidth=2;" parent="1" vertex="1">
          <mxGeometry x="860" y="40" width="80" height="40" as="geometry" />
        </mxCell>
        <mxCell id="yQR6baKr6K5H0-pfH2Kk-40" value="&lt;font color=&quot;#ffffff&quot; style=&quot;font-size: 14px;&quot;&gt;&lt;b&gt;Scan 2&lt;/b&gt;&lt;/font&gt;" style="rounded=1;whiteSpace=wrap;html=1;fillColor=#993399;strokeWidth=2;" parent="1" vertex="1">
          <mxGeometry x="860" y="90" width="80" height="40" as="geometry" />
        </mxCell>
        <mxCell id="yQR6baKr6K5H0-pfH2Kk-41" value="&lt;font color=&quot;#ffffff&quot; style=&quot;font-size: 14px;&quot;&gt;&lt;b&gt;Scan N&lt;/b&gt;&lt;/font&gt;" style="rounded=1;whiteSpace=wrap;html=1;fillColor=#993399;strokeWidth=2;" parent="1" vertex="1">
          <mxGeometry x="860" y="140" width="80" height="40" as="geometry" />
        </mxCell>
        <mxCell id="yQR6baKr6K5H0-pfH2Kk-42" value="" style="rounded=0;whiteSpace=wrap;html=1;fillColor=none;dashed=1;" parent="1" vertex="1">
          <mxGeometry x="840" y="20" width="120" height="180" as="geometry" />
        </mxCell>
        <mxCell id="yQR6baKr6K5H0-pfH2Kk-43" value="" style="endArrow=none;html=1;rounded=0;" parent="1" edge="1">
          <mxGeometry width="50" height="50" relative="1" as="geometry">
            <mxPoint x="780" y="530" as="sourcePoint" />
            <mxPoint x="780" y="90" as="targetPoint" />
          </mxGeometry>
        </mxCell>
        <mxCell id="yQR6baKr6K5H0-pfH2Kk-44" value="&lt;font color=&quot;#ffffff&quot; style=&quot;font-size: 14px;&quot;&gt;&lt;b&gt;Output 1&lt;/b&gt;&lt;/font&gt;" style="rounded=1;whiteSpace=wrap;html=1;fillColor=#1abc9c;strokeWidth=2;" parent="1" vertex="1">
          <mxGeometry x="900" y="240" width="80" height="40" as="geometry" />
        </mxCell>
        <mxCell id="yQR6baKr6K5H0-pfH2Kk-45" value="&lt;font color=&quot;#ffffff&quot; style=&quot;font-size: 14px;&quot;&gt;&lt;b&gt;Output 2&lt;/b&gt;&lt;/font&gt;" style="rounded=1;whiteSpace=wrap;html=1;fillColor=#1abc9c;strokeWidth=2;" parent="1" vertex="1">
          <mxGeometry x="900" y="290" width="80" height="40" as="geometry" />
        </mxCell>
        <mxCell id="yQR6baKr6K5H0-pfH2Kk-46" value="&lt;font color=&quot;#ffffff&quot; style=&quot;font-size: 14px;&quot;&gt;&lt;b&gt;Output N&lt;/b&gt;&lt;/font&gt;" style="rounded=1;whiteSpace=wrap;html=1;fillColor=#1abc9c;strokeWidth=2;" parent="1" vertex="1">
          <mxGeometry x="900" y="340" width="80" height="40" as="geometry" />
        </mxCell>
        <mxCell id="yQR6baKr6K5H0-pfH2Kk-47" value="" style="rounded=0;whiteSpace=wrap;html=1;fillColor=none;dashed=1;" parent="1" vertex="1">
          <mxGeometry x="880" y="220" width="120" height="180" as="geometry" />
        </mxCell>
        <mxCell id="yQR6baKr6K5H0-pfH2Kk-50" value="" style="shape=flexArrow;endArrow=classic;html=1;rounded=0;" parent="1" edge="1">
          <mxGeometry width="50" height="50" relative="1" as="geometry">
            <mxPoint x="790" y="310" as="sourcePoint" />
            <mxPoint x="870" y="310" as="targetPoint" />
          </mxGeometry>
        </mxCell>
        <mxCell id="D75tlmgf6fsrZu7i4AG7-4" value="b" style="edgeLabel;html=1;align=center;verticalAlign=middle;resizable=0;points=[];" parent="yQR6baKr6K5H0-pfH2Kk-50" vertex="1" connectable="0">
          <mxGeometry x="0.6567" y="1" relative="1" as="geometry">
            <mxPoint as="offset" />
          </mxGeometry>
        </mxCell>
        <mxCell id="yQR6baKr6K5H0-pfH2Kk-51" value="" style="shape=flexArrow;endArrow=classic;html=1;rounded=0;" parent="1" edge="1">
          <mxGeometry width="50" height="50" relative="1" as="geometry">
            <mxPoint x="790" y="109.64" as="sourcePoint" />
            <mxPoint x="830" y="109.64" as="targetPoint" />
          </mxGeometry>
        </mxCell>
        <mxCell id="yQR6baKr6K5H0-pfH2Kk-55" value="a" style="edgeLabel;html=1;align=center;verticalAlign=middle;resizable=0;points=[];" parent="yQR6baKr6K5H0-pfH2Kk-51" vertex="1" connectable="0">
          <mxGeometry x="0.1909" y="1" relative="1" as="geometry">
            <mxPoint as="offset" />
          </mxGeometry>
        </mxCell>
        <mxCell id="yQR6baKr6K5H0-pfH2Kk-58" value="&lt;font color=&quot;#ffffff&quot; style=&quot;font-size: 14px;&quot;&gt;&lt;b&gt;Notifier 1&lt;/b&gt;&lt;/font&gt;" style="rounded=1;whiteSpace=wrap;html=1;fillColor=#ff8000;strokeWidth=2;" parent="1" vertex="1">
          <mxGeometry x="940" y="440" width="80" height="40" as="geometry" />
        </mxCell>
        <mxCell id="yQR6baKr6K5H0-pfH2Kk-59" value="&lt;font color=&quot;#ffffff&quot; style=&quot;font-size: 14px;&quot;&gt;&lt;b&gt;Notifier 2&lt;/b&gt;&lt;/font&gt;" style="rounded=1;whiteSpace=wrap;html=1;fillColor=#ff8000;strokeWidth=2;" parent="1" vertex="1">
          <mxGeometry x="940" y="490" width="80" height="40" as="geometry" />
        </mxCell>
        <mxCell id="yQR6baKr6K5H0-pfH2Kk-60" value="&lt;font color=&quot;#ffffff&quot; style=&quot;font-size: 14px;&quot;&gt;&lt;b&gt;Notifier N&lt;/b&gt;&lt;/font&gt;" style="rounded=1;whiteSpace=wrap;html=1;fillColor=#ff8000;strokeWidth=2;" parent="1" vertex="1">
          <mxGeometry x="940" y="540" width="80" height="40" as="geometry" />
        </mxCell>
        <mxCell id="yQR6baKr6K5H0-pfH2Kk-61" value="" style="rounded=0;whiteSpace=wrap;html=1;fillColor=none;dashed=1;" parent="1" vertex="1">
          <mxGeometry x="920" y="420" width="120" height="180" as="geometry" />
        </mxCell>
        <mxCell id="yQR6baKr6K5H0-pfH2Kk-62" value="" style="shape=flexArrow;endArrow=classic;html=1;rounded=0;" parent="1" edge="1">
          <mxGeometry width="50" height="50" relative="1" as="geometry">
            <mxPoint x="790" y="510" as="sourcePoint" />
            <mxPoint x="910" y="510" as="targetPoint" />
          </mxGeometry>
        </mxCell>
        <mxCell id="D75tlmgf6fsrZu7i4AG7-6" value="c" style="edgeLabel;html=1;align=center;verticalAlign=middle;resizable=0;points=[];" parent="yQR6baKr6K5H0-pfH2Kk-62" vertex="1" connectable="0">
          <mxGeometry x="0.7625" relative="1" as="geometry">
            <mxPoint as="offset" />
          </mxGeometry>
        </mxCell>
        <mxCell id="SOsg4B5zZ77FoNVpmYBz-16" style="edgeStyle=orthogonalEdgeStyle;rounded=0;orthogonalLoop=1;jettySize=auto;html=1;exitX=0.5;exitY=0;exitDx=0;exitDy=0;entryX=0.202;entryY=1;entryDx=0;entryDy=0;entryPerimeter=0;endArrow=classic;endFill=0;" edge="1" parent="1" source="SOsg4B5zZ77FoNVpmYBz-1" target="yQR6baKr6K5H0-pfH2Kk-15">
          <mxGeometry relative="1" as="geometry" />
        </mxCell>
        <mxCell id="SOsg4B5zZ77FoNVpmYBz-1" value="&lt;b&gt;Security Bot&lt;/b&gt;&lt;br&gt;&lt;b&gt;service&lt;/b&gt;&lt;br&gt;&lt;font style=&quot;font-size: 11px;&quot;&gt;(check results)&lt;/font&gt;" style="rounded=1;whiteSpace=wrap;html=1;fillColor=#d5e8d4;strokeColor=#82b366;" vertex="1" parent="1">
          <mxGeometry x="340" y="160" width="140" height="100" as="geometry" />
        </mxCell>
        <mxCell id="SOsg4B5zZ77FoNVpmYBz-10" style="edgeStyle=orthogonalEdgeStyle;rounded=0;orthogonalLoop=1;jettySize=auto;html=1;exitX=0;exitY=0.5;exitDx=0;exitDy=0;entryX=0;entryY=0.5;entryDx=0;entryDy=0;startArrow=classic;startFill=1;endArrow=classic;endFill=1;" edge="1" parent="1" source="SOsg4B5zZ77FoNVpmYBz-2" target="yQR6baKr6K5H0-pfH2Kk-7">
          <mxGeometry relative="1" as="geometry">
            <Array as="points">
              <mxPoint x="200" y="210" />
              <mxPoint x="200" y="330" />
            </Array>
          </mxGeometry>
        </mxCell>
        <mxCell id="SOsg4B5zZ77FoNVpmYBz-19" value="&lt;p style=&quot;line-height: 120%;&quot;&gt;&lt;font style=&quot;font-size: 11px;&quot;&gt;(4) get results&lt;br&gt;by &lt;i style=&quot;&quot;&gt;security_&lt;br&gt;check_id&lt;/i&gt;&lt;/font&gt;&lt;/p&gt;" style="edgeLabel;html=1;align=center;verticalAlign=middle;resizable=0;points=[];" vertex="1" connectable="0" parent="SOsg4B5zZ77FoNVpmYBz-10">
          <mxGeometry x="-0.7466" relative="1" as="geometry">
            <mxPoint x="-19" as="offset" />
          </mxGeometry>
        </mxCell>
        <mxCell id="SOsg4B5zZ77FoNVpmYBz-20" value="&lt;p style=&quot;line-height: 120%;&quot;&gt;&lt;font style=&quot;font-size: 11px;&quot;&gt;(1) provide&lt;br&gt;enabled&lt;br&gt;input entities&lt;/font&gt;&lt;br&gt;&lt;/p&gt;" style="edgeLabel;html=1;align=center;verticalAlign=middle;resizable=0;points=[];" vertex="1" connectable="0" parent="SOsg4B5zZ77FoNVpmYBz-10">
          <mxGeometry x="0.5026" relative="1" as="geometry">
            <mxPoint x="-11" as="offset" />
          </mxGeometry>
        </mxCell>
        <mxCell id="SOsg4B5zZ77FoNVpmYBz-2" value="&lt;font style=&quot;font-size: 11px;&quot;&gt;API&lt;/font&gt;" style="rounded=0;whiteSpace=wrap;html=1;fillColor=#fff2cc;align=center;strokeColor=#d6b656;" vertex="1" parent="1">
          <mxGeometry x="320" y="180" width="20" height="60" as="geometry" />
        </mxCell>
        <mxCell id="SOsg4B5zZ77FoNVpmYBz-17" value="" style="endArrow=classic;html=1;rounded=0;exitX=0.856;exitY=-0.005;exitDx=0;exitDy=0;exitPerimeter=0;entryX=0.797;entryY=1.02;entryDx=0;entryDy=0;entryPerimeter=0;" edge="1" parent="1" source="yQR6baKr6K5H0-pfH2Kk-5" target="yQR6baKr6K5H0-pfH2Kk-15">
          <mxGeometry width="50" height="50" relative="1" as="geometry">
            <mxPoint x="490" y="250" as="sourcePoint" />
            <mxPoint x="500" y="190" as="targetPoint" />
          </mxGeometry>
        </mxCell>
        <mxCell id="SOsg4B5zZ77FoNVpmYBz-18" value="" style="endArrow=none;html=1;rounded=0;endFill=0;exitX=1;exitY=0.5;exitDx=0;exitDy=0;" edge="1" parent="1" source="yQR6baKr6K5H0-pfH2Kk-2">
          <mxGeometry width="50" height="50" relative="1" as="geometry">
            <mxPoint x="220" y="270" as="sourcePoint" />
            <mxPoint x="200" y="270" as="targetPoint" />
          </mxGeometry>
        </mxCell>
        <mxCell id="SOsg4B5zZ77FoNVpmYBz-21" value="" style="rounded=0;whiteSpace=wrap;html=1;fillColor=none;dashed=1;" vertex="1" parent="1">
          <mxGeometry x="300" y="140" width="240" height="260" as="geometry" />
        </mxCell>
      </root>
    </mxGraphModel>
  </diagram>
</mxfile>
